<svg width="31" height="31" viewBox="0 0 31 31" fill="none" xmlns="http://www.w3.org/2000/svg">
<path d="M8.33914 13.6466C7.21641 13.1676 6.70552 11.8716 7.18115 10.7557C7.65992 9.63246 8.95624 9.12123 10.0724 9.59697L10.0719 9.59936L10.7876 9.90607L8.33914 13.6466ZM8.33914 13.6466C8.3394 13.6468 8.33965 13.6469 8.33991 13.647L9.05905 13.9552L9.05953 13.9554C9.96315 14.3419 10.8945 14.6474 11.8498 14.864V17.2861C11.8498 17.4664 11.8203 17.6426 11.7648 17.8013L11.7647 17.8012L11.7611 17.8119L10.0234 23.0249C9.63817 24.1808 10.2623 25.429 11.4181 25.8142C12.574 26.1995 13.8221 25.5754 14.2074 24.4196L15.5061 20.5237L16.8047 24.4196C17.19 25.5754 18.4382 26.1995 19.594 25.8142C20.7499 25.429 21.3739 24.1808 20.9887 23.0249L19.251 17.8119L19.251 17.8118L19.2492 17.8067C19.1909 17.6359 19.1623 17.4634 19.1623 17.2861V14.8679C20.115 14.6499 21.0465 14.349 21.9526 13.9614L21.9531 13.9612L22.6722 13.653C22.6725 13.6529 22.6727 13.6528 22.673 13.6527C23.7957 13.1737 24.3066 11.8777 23.831 10.7618C23.3526 9.63956 22.0583 9.12824 20.9428 9.6017C20.9418 9.60214 20.9408 9.60258 20.9397 9.60303L20.2188 9.9034L20.2188 9.90336L20.2115 9.90648C18.7244 10.5446 17.1236 10.875 15.5 10.875C13.8771 10.875 12.2822 10.5449 10.7882 9.90634L8.33914 13.6466ZM0.75 15.5C0.75 11.5881 2.30401 7.83634 5.07018 5.07018C7.83634 2.30401 11.5881 0.75 15.5 0.75C19.4119 0.75 23.1637 2.30401 25.9298 5.07018C28.696 7.83634 30.25 11.5881 30.25 15.5C30.25 19.4119 28.696 23.1637 25.9298 25.9298C23.1637 28.696 19.4119 30.25 15.5 30.25C11.5881 30.25 7.83634 28.696 5.07018 25.9298C2.30401 23.1637 0.75 19.4119 0.75 15.5ZM15.5 10.4375C16.3412 10.4375 17.148 10.1033 17.7429 9.50848C18.3377 8.91364 18.6719 8.10686 18.6719 7.26562C18.6719 6.42439 18.3377 5.61761 17.7429 5.02277C17.148 4.42793 16.3412 4.09375 15.5 4.09375C14.6588 4.09375 13.852 4.42793 13.2571 5.02277C12.6623 5.61761 12.3281 6.42439 12.3281 7.26562C12.3281 8.10686 12.6623 8.91364 13.2571 9.50848C13.852 10.1033 14.6588 10.4375 15.5 10.4375Z" stroke="#818181" stroke-width="1.5"/>
</svg>
