<svg width="12" height="16" viewBox="0 0 12 16" fill="none" xmlns="http://www.w3.org/2000/svg">
<path d="M11.5 6.01557C11.5 6.60199 11.3008 7.34776 10.9428 8.1978C10.5884 9.0396 10.0952 9.94486 9.54556 10.8387C8.4468 12.6257 7.1466 14.3288 6.35017 15.3282C6.166 15.5573 5.834 15.5573 5.64983 15.3282C4.8534 14.3288 3.5532 12.6257 2.45444 10.8387C1.90484 9.94486 1.41161 9.0396 1.05715 8.1978C0.699232 7.34776 0.5 6.60199 0.5 6.01557C0.5 2.96939 2.96486 0.5 6 0.5C9.03514 0.5 11.5 2.96939 11.5 6.01557ZM7.76822 4.24459C7.29948 3.77463 6.66346 3.51038 6 3.51038C5.33654 3.51038 4.70052 3.77463 4.23178 4.24459C3.76308 4.7145 3.5 5.35157 3.5 6.01557C3.5 6.67957 3.76308 7.31663 4.23178 7.78655C4.70052 8.2565 5.33654 8.52076 6 8.52076C6.66346 8.52076 7.29948 8.2565 7.76822 7.78655C8.23692 7.31663 8.5 6.67957 8.5 6.01557C8.5 5.35157 8.23692 4.7145 7.76822 4.24459Z" stroke="black"/>
</svg>
