<svg width="32" height="18" viewBox="0 0 32 18" fill="none" xmlns="http://www.w3.org/2000/svg">
<path d="M21.6 0C22.9237 0 24 1.09399 24 2.43956V10.3681V13.4176V14.0275C24 15.7123 22.6575 17.0769 21 17.0769C20.0175 17.0769 19.1475 16.5966 18.6 15.8571C18.0525 16.5966 17.1825 17.0769 16.2 17.0769C14.5425 17.0769 13.2 15.7123 13.2 14.0275C13.2 13.8178 13.2225 13.6158 13.26 13.4176H8.4H7.14C7.1775 13.6158 7.2 13.8178 7.2 14.0275C7.2 15.7123 5.8575 17.0769 4.2 17.0769C2.5425 17.0769 1.2 15.7123 1.2 14.0275C1.2 13.8178 1.2225 13.6158 1.26 13.4176H1.2C0.536249 13.4176 0 12.8725 0 12.1978V9.75824V9.14835V8.75573C0 8.40505 0.119999 8.06198 0.3375 7.79135L2.5425 5.05446C2.94 4.55893 3.53625 4.27304 4.16625 4.27304H6V2.43956C6 1.09399 7.07625 0 8.4 0H21.6ZM2.0625 8.53846H6V6.0989H4.17C4.08 6.0989 3.99375 6.14083 3.9375 6.20944L2.0625 8.53846ZM4.2 12.8077C3.88174 12.8077 3.57651 12.9362 3.35147 13.165C3.12643 13.3937 3 13.704 3 14.0275C3 14.351 3.12643 14.6612 3.35147 14.89C3.57651 15.1187 3.88174 15.2473 4.2 15.2473C4.51826 15.2473 4.82348 15.1187 5.04853 14.89C5.27357 14.6612 5.4 14.351 5.4 14.0275C5.4 13.704 5.27357 13.3937 5.04853 13.165C4.82348 12.9362 4.51826 12.8077 4.2 12.8077ZM17.4 14.0275C17.4 13.704 17.2736 13.3937 17.0485 13.165C16.8235 12.9362 16.5183 12.8077 16.2 12.8077C15.8817 12.8077 15.5765 12.9362 15.3515 13.165C15.1264 13.3937 15 13.704 15 14.0275C15 14.351 15.1264 14.6612 15.3515 14.89C15.5765 15.1187 15.8817 15.2473 16.2 15.2473C16.5183 15.2473 16.8235 15.1187 17.0485 14.89C17.2736 14.6612 17.4 14.351 17.4 14.0275ZM21 12.8077C20.6817 12.8077 20.3765 12.9362 20.1515 13.165C19.9264 13.3937 19.8 13.704 19.8 14.0275C19.8 14.351 19.9264 14.6612 20.1515 14.89C20.3765 15.1187 20.6817 15.2473 21 15.2473C21.3183 15.2473 21.6235 15.1187 21.8485 14.89C22.0736 14.6612 22.2 14.351 22.2 14.0275C22.2 13.704 22.0736 13.3937 21.8485 13.165C21.6235 12.9362 21.3183 12.8077 21 12.8077Z" fill="white"/>
<path d="M30 2.25C30.1381 2.25 30.25 2.13807 30.25 2C30.25 1.86193 30.1381 1.75 30 1.75V2.25ZM12 2.25H30V1.75H12V2.25Z" fill="white"/>
<path d="M27 4.25C27.1381 4.25 27.25 4.13807 27.25 4C27.25 3.86193 27.1381 3.75 27 3.75V4.25ZM9 4.25H27V3.75H9V4.25Z" fill="white"/>
<path d="M28 6.35001C28.1381 6.35001 28.25 6.23808 28.25 6.10001C28.25 5.96193 28.1381 5.85001 28 5.85001V6.35001ZM12 6.35001H28V5.85001H12V6.35001Z" fill="white"/>
<path d="M29 8.35001C29.1381 8.35001 29.25 8.23808 29.25 8.10001C29.25 7.96193 29.1381 7.85001 29 7.85001V8.35001ZM12 8.35001H29V7.85001H12V8.35001Z" fill="white"/>
<path d="M31 10.35C31.1381 10.35 31.25 10.2381 31.25 10.1C31.25 9.96193 31.1381 9.85001 31 9.85001V10.35ZM12 10.35H31V9.85001H12V10.35Z" fill="white"/>
<path d="M31 12.35C31.1381 12.35 31.25 12.2381 31.25 12.1C31.25 11.9619 31.1381 11.85 31 11.85V12.35ZM12 12.35H31V11.85H12V12.35Z" fill="white"/>
</svg>
