<svg width="30" height="28" viewBox="0 0 30 28" fill="none" xmlns="http://www.w3.org/2000/svg">
<path d="M24.5962 2.11922L24.326 2.69355H23.6913H2.10197C1.38586 2.69355 0.846884 3.38479 1.03988 4.10056L1.04046 4.10275L3.19378 12.1616C3.19385 12.1619 3.19393 12.1622 3.194 12.1624C3.52512 13.3934 4.63088 14.2419 5.87878 14.2419H21.0333H22.2389L22.0161 15.4268L21.7325 16.9351L21.7315 16.94C21.5266 18.0006 20.6012 18.7823 19.51 18.7823H4.36596C4.22665 18.7823 4.10526 18.8938 4.10526 19.0524C4.10526 19.2111 4.22665 19.3226 4.36596 19.3226H19.51C20.8423 19.3226 21.9926 18.3674 22.2409 17.0424L22.2412 17.0409L24.9506 2.70447C24.9508 2.70317 24.9511 2.70188 24.9513 2.70058C25.0776 2.0203 25.6691 1.54032 26.3492 1.54032H28.7393C28.8786 1.54032 29 1.42883 29 1.27016C29 1.1115 28.8786 1 28.7393 1H26.3492C25.5913 1 24.9137 1.44428 24.5962 2.11922ZM22.2763 24.5565C22.2763 24.3531 22.2366 24.152 22.1595 23.9646C22.0824 23.7771 21.9697 23.6073 21.8281 23.4646C21.6865 23.3219 21.5187 23.2092 21.3347 23.1324C21.1507 23.0556 20.9537 23.0161 20.7549 23.0161C20.5562 23.0161 20.3592 23.0556 20.1752 23.1324C19.9911 23.2092 19.8234 23.3219 19.6818 23.4646C19.5402 23.6073 19.4274 23.7771 19.3504 23.9646C19.2733 24.152 19.2336 24.3531 19.2336 24.5565C19.2336 24.7598 19.2733 24.9609 19.3504 25.1483C19.4274 25.3358 19.5402 25.5056 19.6818 25.6483C19.8234 25.791 19.9911 25.9037 20.1752 25.9805C20.3592 26.0573 20.5562 26.0968 20.7549 26.0968C20.9537 26.0968 21.1507 26.0573 21.3347 25.9805C21.5187 25.9037 21.6865 25.791 21.8281 25.6483C21.9697 25.5056 22.0824 25.3358 22.1595 25.1483C22.2366 24.9609 22.2763 24.7598 22.2763 24.5565ZM5.62665 23.0161C5.22557 23.0161 4.83941 23.1766 4.55351 23.4646C4.26736 23.7529 4.10526 24.1455 4.10526 24.5565C4.10526 24.9674 4.26736 25.36 4.55351 25.6483C4.83941 25.9363 5.22558 26.0968 5.62665 26.0968C6.02772 26.0968 6.41389 25.9363 6.69979 25.6483C6.98594 25.36 7.14803 24.9674 7.14803 24.5565C7.14803 24.1455 6.98594 23.7529 6.69979 23.4646C6.41389 23.1766 6.02772 23.0161 5.62665 23.0161Z" stroke="#F38C8F" stroke-width="2"/>
</svg>
