<svg width="16" height="16" viewBox="0 0 16 16" fill="none" xmlns="http://www.w3.org/2000/svg">
<path d="M7.04063 4.5H7.91453L7.47167 3.74662L6.38538 1.89869C6.38518 1.89834 6.38498 1.898 6.38478 1.89765C6.0597 1.33938 5.45997 1 4.81875 1H4.75C3.78323 1 3 1.78323 3 2.75C3 3.71677 3.78323 4.5 4.75 4.5H7H7.04063ZM2.3 4.5H3.11506L2.74572 3.77343C2.58935 3.46581 2.5 3.11816 2.5 2.75C2.5 1.50739 3.50739 0.5 4.75 0.5H4.81875C5.63848 0.5 6.39929 0.934351 6.81567 1.64373L6.81583 1.644L7.56895 2.92525L8.00053 3.65946L8.43132 2.92479L9.18393 1.64128C9.18399 1.64119 9.18405 1.64109 9.1841 1.64099C9.60045 0.934468 10.3614 0.5 11.1812 0.5H11.25C12.4926 0.5 13.5 1.50739 13.5 2.75C13.5 3.11816 13.4107 3.46581 13.2543 3.77343L12.8849 4.5H13.7H15C15.277 4.5 15.5 4.72302 15.5 5V7C15.5 7.27698 15.277 7.5 15 7.5H1C0.723017 7.5 0.5 7.27698 0.5 7V5C0.5 4.72302 0.723017 4.5 1 4.5H2.3ZM8.52833 3.74662L8.08547 4.5H8.95938H9H11.25C12.2168 4.5 13 3.71677 13 2.75C13 1.78323 12.2168 1 11.25 1H11.1812C10.5378 1 9.94306 1.3412 9.61608 1.8962L9.61583 1.89662L8.52833 3.74662ZM1.5 14.5V9.5H6.5V15.5H2.5C1.94802 15.5 1.5 15.052 1.5 14.5ZM13.5 15.5H9.5V9.5H14.5V14.5C14.5 15.052 14.052 15.5 13.5 15.5Z" stroke="black"/>
</svg>
